<?xml version="1.0" encoding="iso-8859-1"?>
<!-- Generator: Adobe Illustrator 19.0.0, SVG Export Plug-In . SVG Version: 6.00 Build 0)  -->
<svg version="1.1" id="Layer_1" xmlns="http://www.w3.org/2000/svg" xmlns:xlink="http://www.w3.org/1999/xlink" x="0" y="0"
viewBox="-500 -500 1000 1000" style="enable-background:new 0 0 511.998 511.998;" xml:space="preserve" >
  <g>
    <path transform="scale(-.8, .8)" style="fill:#FFBA1B;" d="M470.26,51.26L114.955,173.522l108.228,21.587L470.258,51.26H470.26z"/>
    <path transform="scale(-.8, .8)" style="fill:#20D0C2;" d="M114.955,173.522l108.228,21.587l71.829-41.819L114.955,173.522z"/>
    <path transform="scale(-.8, .8)" style="fill:#F5A209;" d="M223.183,195.109l16.765,127.578L470.258,51.26L223.183,195.109z"/>
    <path transform="scale(-.8, .8)" style="fill:#15BDB1;" d="M223.183,195.109l16.765,127.578l102.937-121.314l-17.769-28.952l-35.202,29.386l5.1-48.519h-0.002
      l-71.829,41.819V195.109z"/>
    <path transform="scale(-.8, .8)" style="fill:#FECD0D;" d="M470.26,51.26L262.05,225.069l-22.099,97.619L470.26,51.26z"/>
    <path transform="scale(-.8, .8)" style="fill:#20D0C2;" d="M289.915,201.808l-27.865,23.261l-22.099,97.619l102.937-121.314l-17.769-28.952l-35.202,29.386
      v-0.002L289.915,201.808z"/>
    <path transform="scale(-.8, .8)" style="fill:#FFBA1B;" d="M399.433,293.524L470.26,51.26L262.05,225.069l137.385,68.455H399.433z"/>
    <path transform="scale(-.8, .8)" style="fill:#20D0C2;" d="M289.758,201.808l-27.865,23.261l137.385,68.453l-74.314-121.1l-35.207,29.388V201.808z"/>
    <path transform="scale(-.8, .8)" style="fill:#F3F3F3;" d="M46.103,358.621l143.869-140.161l6.365,8.365L46.103,358.621z M214.836,456.721L214.836,456.721
      l130.323-149.789l9.172,4.178L214.836,456.721z M106.123,442.021L106.123,442.021l121.75-109.042l-6.65-5.697L106.123,442.021z"/>
    <!-- <animateTransform attributeType="xml"
      attributeName="transform"
      type="rotate"
      from="0 0 0"
      to="360 0 0"
      dur="2s"
      repeatCount="indefinite"/> -->
  </g>
</svg>
